<?xml version="1.0" encoding="UTF-8" standalone="no"?>
<svg
   xmlns:dc="http://purl.org/dc/elements/1.1/"
   xmlns:cc="http://creativecommons.org/ns#"
   xmlns:rdf="http://www.w3.org/1999/02/22-rdf-syntax-ns#"
   xmlns:svg="http://www.w3.org/2000/svg"
   xmlns="http://www.w3.org/2000/svg"
   xmlns:sodipodi="http://sodipodi.sourceforge.net/DTD/sodipodi-0.dtd"
   xmlns:inkscape="http://www.inkscape.org/namespaces/inkscape"
   width="24"
   height="24"
   viewBox="0 0 24 24"
   fill="none"
   stroke="currentColor"
   stroke-width="2"
   stroke-linecap="round"
   stroke-linejoin="round"
   class="feather feather-search"
   version="1.1"
   id="svg46"
   sodipodi:docname="logo-inkscape.svg"
   inkscape:version="0.92.4 (5da689c313, 2019-01-14)">
  <metadata
     id="metadata52">
    <rdf:RDF>
      <cc:Work
         rdf:about="">
        <dc:format>image/svg+xml</dc:format>
        <dc:type
           rdf:resource="http://purl.org/dc/dcmitype/StillImage" />
        <dc:title></dc:title>
      </cc:Work>
    </rdf:RDF>
  </metadata>
  <defs
     id="defs50" />
  <sodipodi:namedview
     pagecolor="#ffffff"
     bordercolor="#666666"
     borderopacity="1"
     objecttolerance="10"
     gridtolerance="10"
     guidetolerance="10"
     inkscape:pageopacity="0"
     inkscape:pageshadow="2"
     inkscape:window-width="2560"
     inkscape:window-height="1377"
     id="namedview48"
     showgrid="false"
     inkscape:zoom="39.333333"
     inkscape:cx="18.529316"
     inkscape:cy="10.130869"
     inkscape:window-x="-8"
     inkscape:window-y="-8"
     inkscape:window-maximized="1"
     inkscape:current-layer="svg46" />
  <circle
     cx="11"
     cy="11"
     r="8"
     id="circle42" />
  <line
     x1="21"
     y1="21"
     x2="16.65"
     y2="16.65"
     id="line44" />
  <path
     inkscape:connector-curvature="0"
     style="fill:#244ba3;fill-opacity:1;stroke:none;stroke-width:0.03285939"
     d="M 14.926169,9.6773145 H 14.137542 V 8.8886874 c 0,-0.1445805 -0.118293,-0.2628742 -0.262874,-0.2628742 H 13.086043 V 7.837187 c 0,-0.1445815 -0.118293,-0.2628751 -0.262876,-0.2628751 H 9.142925 c -0.1445818,0 -0.2628755,0.1182936 -0.2628755,0.2628751 V 8.6258132 H 8.0914252 c -0.1445824,0 -0.2628751,0.1182937 -0.2628751,0.2628742 V 9.6773145 H 7.0399238 c -0.1445805,0 -0.2628741,0.118295 -0.2628741,0.2628805 v 3.680255 c 0,0.14458 0.1182936,0.262874 0.2628741,0.262874 h 1.3143765 v -2.103 h 0.5257492 v 2.103 H 9.931551 v -2.103 h 0.525747 v 2.103 h 1.051495 v -2.103 h 0.525749 v 2.103 h 1.051501 v -2.103 h 0.52575 v 2.103 h 1.314376 c 0.14458,0 0.262875,-0.118294 0.262875,-0.262874 V 9.940195 c 0,-0.1445855 -0.118295,-0.2628805 -0.262875,-0.2628805 z"
     id="path20" />
</svg>
